HIERARCHY
ROOT Hips
{
     OFFSET 1.88212 96.90440 -13.34250
     CHANNELS 6 Xposition Yposition Zposition Zrotation Xrotation Yrotation
     JOINT Spine
     {
          OFFSET 0.00000 11.89050 0.00000
          CHANNELS 3 Zrotation Xrotation Yrotation
          JOINT Spine1
          {
               OFFSET -0.00000 25.65740 0.12766
               CHANNELS 3 Zrotation Xrotation Yrotation
               JOINT HEad
               {
                    OFFSET 0.00000 8.73416 0.01134
                    CHANNELS 3 Zrotation Xrotation Yrotation
                    End Site
                    {
                         OFFSET -0.29000 12.77420 2.51395
                    }
               }
               JOINT LeftShoulder1
               {
                    OFFSET 8.99000 -0.36225 -0.22000
                    CHANNELS 3 Zrotation Xrotation Yrotation
                    JOINT LeftArm
                    {
                         OFFSET 10.28270 -0.00338 0.32212
                         CHANNELS 3 Zrotation Xrotation Yrotation
                         JOINT LeftForeArm
                         {
                              OFFSET 32.76690 0.09914 -1.42434
                              CHANNELS 3 Zrotation Xrotation Yrotation
                              JOINT LeftHand
                              {
                                   OFFSET 27.56430 0.08536 1.02216
                                   CHANNELS 3 Zrotation Xrotation Yrotation
                                   End Site
                                   {
                                        OFFSET 16.74430 -0.60000 1.50291
                                   }
                              }
                         }
                    }
               }
               JOINT RightShoulder
               {
                    OFFSET -8.99000 -0.36225 -0.22000
                    CHANNELS 3 Zrotation Xrotation Yrotation
                    JOINT RightArm
                    {
                         OFFSET -10.28270 -0.00338 0.32212
                         CHANNELS 3 Zrotation Xrotation Yrotation
                         JOINT RightForeArm
                         {
                              OFFSET -32.89710 0.09914 -1.42434
                              CHANNELS 3 Zrotation Xrotation Yrotation
                              JOINT RightHand
                              {
                                   OFFSET -27.49210 0.08536 1.02216
                                   CHANNELS 3 Zrotation Xrotation Yrotation
                                   End Site
                                   {
                                        OFFSET -16.63120 -0.60000 1.50291
                                   }
                              }
                         }
                    }
               }
          }
     }
     JOINT LeftUpLeg
     {
          OFFSET 8.94580 -8.66707 0.10165
          CHANNELS 3 Zrotation Xrotation Yrotation
          JOINT LeftLeg
          {
               OFFSET 0.00000 -44.42270 1.37270
               CHANNELS 3 Zrotation Xrotation Yrotation
               JOINT LeftFoot
               {
                    OFFSET -0.25355 -42.09240 -1.46059
                    CHANNELS 3 Zrotation Xrotation Yrotation
                    JOINT LeftToes
                    {
                         OFFSET -0.04000 -4.41509 8.49910
                         CHANNELS 3 Zrotation Xrotation Yrotation
                         End Site
                         {
                              OFFSET 0.08000 -0.04745 9.77979
                         }
                    }
               }
          }
     }
     JOINT RightUpLeg
     {
          OFFSET -8.94580 -8.66707 0.10165
          CHANNELS 3 Zrotation Xrotation Yrotation
          JOINT RightLeg
          {
               OFFSET 0.00000 -44.42270 1.37270
               CHANNELS 3 Zrotation Xrotation Yrotation
               JOINT RightFoot
               {
                    OFFSET 0.25355 -42.09240 -1.46059
                    CHANNELS 3 Zrotation Xrotation Yrotation
                    JOINT RightToes
                    {
                         OFFSET 0.04000 -4.41509 8.49910
                         CHANNELS 3 Zrotation Xrotation Yrotation
                         End Site
                         {
                              OFFSET -0.08000 -0.13745 9.77979
                         }
                    }
               }
          }
     }
}
MOTION
Frames: 15
Frame Time: 0.01667
22.47765 89.75244 429.51508 10.36963 4.40794 111.84176 -0.87903 18.90603 -0.75863 -0.00414 0.01963 -0.01084 -0.71807 12.46661 8.92834 -1.79446 11.45498 3.08613 -126.70216 -68.29931 -95.71631 -54.20448 62.39395 -70.47903 20.26483 13.04021 -12.34813 12.92620 12.05733 -2.26305 86.07063 0.08123 67.45516 18.65548 33.15616 99.38958 22.68289 16.38901 5.22365 23.67339 -7.86942 -30.91480 -32.80828 3.46380 78.77634 4.18845 0.01726 0.01594 -0.72817 -16.19995 -55.70329 -30.09336 6.55906 26.71289 36.14898 -5.65170 -41.43021 -17.70663 -0.01949 -0.01028 -0.68343 -41.63975 32.78852 
22.52382 89.35133 429.31732 10.80767 5.14652 112.98981 -0.76495 19.25589 -0.17482 -0.00304 0.01874 -0.01047 -1.14508 13.35495 10.35572 -1.61066 12.01072 1.97194 -126.72782 -68.55532 -96.35317 -42.89081 62.42462 -77.79899 19.12474 7.72723 -12.97603 13.37111 12.30200 -3.47956 85.76941 0.19422 67.49574 17.91113 33.41141 99.69580 22.17172 15.86046 5.75918 24.47399 -7.59084 -33.70726 -32.20043 2.45728 80.22077 2.83378 0.01305 0.01768 0.31884 -13.32405 -54.93956 -29.63886 6.09261 26.44757 36.48141 -2.28435 -44.32990 -17.87975 -0.00219 -0.00612 0.88937 -44.73349 33.94458 
22.60785 88.92312 429.02399 11.24021 5.79947 114.20631 -0.51079 19.72853 0.19191 -0.00162 0.01755 -0.00980 -1.97045 14.04058 13.24350 -1.31874 12.37073 1.05235 -126.82816 -68.84086 -97.06068 -36.65934 61.96660 -81.91328 18.02568 4.68046 -13.50923 13.79825 12.39360 -4.44193 85.44862 0.32584 67.54721 17.14231 33.57412 100.01733 21.72941 15.40499 6.24621 25.76939 -7.49004 -35.04114 -31.89892 2.26882 80.27272 0.95663 0.01374 0.02650 1.60421 -10.62254 -54.07496 -29.45440 5.51184 26.00461 36.98120 1.09009 -46.88875 -17.94804 -0.00228 -0.00477 2.62413 -47.42308 34.98310 
22.69986 88.45187 428.63641 11.66761 6.35917 115.47507 -0.10019 20.28798 0.36342 -0.00070 0.01635 -0.00906 -3.10580 14.42286 17.39921 -0.97481 12.55333 0.28276 -126.97604 -69.14759 -97.87975 -33.64796 61.41124 -83.86086 17.44439 3.42579 -13.44365 14.18788 12.35435 -5.18235 85.14305 0.48031 67.61486 16.37954 33.67049 100.33889 21.32975 14.98529 6.70384 27.29251 -7.60523 -35.07696 -31.78456 2.86182 79.19450 -0.82341 0.01046 0.02565 2.61504 -8.11022 -52.93557 -29.45735 4.88347 25.41016 37.74165 4.55087 -49.10046 -17.98867 -0.00302 -0.00450 4.39500 -49.95185 35.78997 
22.77321 87.93334 428.15564 12.08575 6.82544 116.78190 0.46794 20.89885 0.36411 -0.00013 0.01500 -0.00824 -4.15700 14.59079 21.11580 -0.61932 12.57598 -0.33107 -127.06361 -69.45646 -98.73576 -32.55615 60.82682 -84.48002 16.89118 2.93218 -13.51855 14.52948 12.20241 -5.72778 84.87312 0.65073 67.70324 15.65511 33.72192 100.64584 21.01006 14.61272 7.08636 28.81512 -7.95340 -33.95090 -31.76473 4.19320 77.19508 -2.67062 0.00778 0.02382 5.92708 1.92528 -36.32016 -29.57410 4.24317 24.68883 38.77725 8.07125 -51.00431 -18.07155 -0.00319 -0.00495 6.14170 -52.44070 36.36372 
22.81373 87.37823 427.57898 12.48794 7.20645 118.11362 1.17937 21.52888 0.22107 -0.00000 0.01359 -0.00742 -5.11217 14.58375 24.38157 -0.29643 12.46208 -0.79242 -126.98280 -69.75621 -99.54412 -32.51165 60.18935 -84.34406 16.60038 3.10538 -13.29865 14.80466 11.95906 -6.10613 84.65921 0.83290 67.81894 14.99100 33.74271 100.92943 20.75190 14.27725 7.39785 30.09151 -8.36300 -32.90113 -31.54089 5.57929 75.32984 -4.34294 0.00416 0.02010 5.54531 -0.72536 -42.59277 -29.75554 3.61266 23.86839 40.05058 11.58787 -52.64977 -18.23917 -0.00268 -0.00589 7.82676 -54.88765 36.68686 
22.81299 86.80302 426.91556 12.86314 7.51308 119.46340 2.00826 22.14683 -0.04083 -0.00041 0.01223 -0.00664 -5.95830 14.43828 27.19401 -0.03932 12.24113 -1.09773 -126.62398 -70.05800 -100.21857 -32.97687 59.39864 -83.87254 15.49559 21.97826 -11.33208 14.99265 11.64994 -6.34179 84.52004 1.02296 67.97038 14.39425 33.74187 101.18517 20.56871 13.98763 7.61471 31.07109 -8.78386 -31.93589 -29.24889 6.51041 74.22704 -10.09834 -0.04873 0.18580 10.61174 4.39894 -40.17719 -29.96207 3.00825 22.97288 41.48880 15.03313 -54.07980 -18.50918 -0.00147 -0.00696 9.41770 -57.25990 36.75129 
22.76987 86.22163 426.17389 13.20156 7.75466 120.82641 2.92256 22.72751 -0.39671 -0.00121 0.01110 -0.00597 -6.68455 14.18486 29.56047 0.11975 11.94304 -1.28697 -125.93649 -70.35692 -100.70651 -33.53822 58.47286 -83.33179 16.08426 6.24163 -12.74839 15.08107 11.29987 -6.45653 84.46619 1.22072 68.16466 13.86158 33.72654 101.40920 20.43592 13.72453 7.75862 31.77300 -9.23117 -31.04959 -27.70128 7.63443 73.00459 -9.08333 -0.00198 -0.01321 8.18783 5.43842 -41.55088 -30.18005 2.44493 22.02712 43.00754 18.34315 -55.31318 -18.87365 0.00027 -0.00763 10.86179 -59.49966 36.53662 
22.68834 85.64304 425.35474 13.49506 7.94257 122.19452 3.88391 23.25376 -0.81842 -0.00215 0.01021 -0.00542 -7.28675 13.84769 31.49692 0.16424 11.59397 -1.41717 -124.90371 -70.60011 -100.93322 -33.85580 57.57046 -82.90352 15.40611 17.13166 -11.60795 15.07085 10.92974 -6.46677 84.49702 1.42672 68.40391 13.38492 33.70568 101.59605 20.35037 13.48199 7.83837 32.24485 -9.73047 -30.22573 -26.48716 8.85175 71.74432 -11.24004 0.01470 0.02385 9.39179 7.21392 -40.60560 -30.41232 1.94605 21.06041 44.50838 21.46206 -56.33747 -19.30773 0.00219 -0.00759 12.09563 -61.54089 36.02239 
22.57183 85.07587 424.45615 13.73638 8.08909 123.55985 4.85273 23.71241 -1.27648 -0.00318 0.00935 -0.00489 -7.76671 13.44853 33.02304 0.13470 11.21540 -1.45709 -123.46772 -70.77659 -100.81235 -33.93461 56.54674 -82.65315 16.00766 7.95039 -12.35567 14.97144 10.55818 -6.37831 84.60358 1.62721 68.68510 12.96023 33.68618 101.73954 20.29778 13.25412 7.87632 32.52367 -10.28892 -29.44757 -25.43778 10.12482 70.49478 -11.71770 -0.00035 0.00383 8.78612 7.86462 -40.61743 -30.66489 1.54152 20.10157 45.88734 24.34382 -57.11470 -19.78322 0.00396 -0.00681 13.05141 -63.30009 35.17450 
22.42144 84.53102 423.47839 13.91866 8.20536 124.91615 5.79109 24.09580 -1.74474 -0.00417 0.00873 -0.00444 -8.13208 13.00263 34.16284 0.03013 10.82613 -1.45403 -121.63287 -70.85091 -100.31300 -33.71610 55.50954 -82.53542 15.60652 14.02215 -11.64812 14.78779 10.20049 -6.20101 84.78069 1.81789 69.00322 12.58026 33.67264 101.84005 20.28105 13.04654 7.87293 32.63417 -10.90781 -28.69925 -24.46703 11.40754 69.29818 -12.85721 0.00174 0.00769 9.05028 8.49562 -40.08600 -30.93893 1.26050 19.17656 47.04713 26.94987 -57.59403 -20.27918 0.00544 -0.00551 13.65461 -64.68678 33.94389 
22.23569 84.02126 422.42459 14.03584 8.29985 126.25902 6.66494 24.39927 -2.19894 -0.00516 0.00816 -0.00399 -8.39434 12.52331 34.94119 -0.12008 10.44077 -1.39217 -119.33571 -70.80354 -99.35984 -33.28139 54.33555 -82.53172 16.13436 8.48541 -12.01244 14.53293 9.86953 -5.93906 85.01270 1.98498 69.35202 12.24034 33.66581 101.90157 20.28770 12.85473 7.84179 32.59254 -11.57964 -27.96612 -23.57746 12.68215 68.18944 -13.48281 -0.00035 0.00414 8.88207 8.67608 -39.86216 -31.22902 1.12504 18.30823 47.90840 29.24651 -57.72800 -20.78544 0.00661 -0.00395 13.83620 -65.62201 32.28829 
22.01105 83.55953 421.30032 14.08585 8.37567 127.58699 7.44987 24.62270 -2.62059 -0.00604 0.00776 -0.00358 -8.56748 12.02089 35.38450 -0.31327 10.07029 -1.29969 -116.55479 -70.59428 -97.91270 -32.62517 53.07080 -82.59471 15.89032 11.73391 -11.59067 14.22953 9.57243 -5.60871 85.27362 2.12767 69.72471 11.93864 33.66479 101.92788 20.31144 12.67288 7.79234 32.41059 -12.28964 -27.23816 -22.80430 13.92832 67.20103 -14.15069 0.00276 0.00413 8.93719 8.66174 -39.60606 -31.52870 1.14358 17.51519 48.42740 31.20979 -57.48896 -21.29980 0.00749 -0.00231 13.56589 -66.05271 30.20104 
21.74938 83.16922 420.12677 14.06572 8.43944 128.89853 8.11846 24.77036 -2.99117 -0.00682 0.00736 -0.00316 -8.66338 11.50596 35.51870 -0.52819 9.72248 -1.16213 -113.31712 -70.19642 -95.98832 -31.81256 51.64157 -82.71017 16.26384 8.32898 -11.76655 13.91050 9.31224 -5.23129 85.53027 2.24678 70.11227 11.68117 33.66905 101.91892 20.35030 12.49041 7.73230 32.02034 -13.05141 -26.52312 -22.51045 15.00595 66.39952 -14.54316 -0.00009 -0.00297 9.17911 8.12344 -39.43095 -31.82316 1.32003 16.81502 48.57282 32.81788 -56.87121 -21.82544 0.00820 -0.00064 12.86363 -65.93590 27.71291 
21.45142 82.88458 418.91769 13.97271 8.50480 130.20100 8.64342 24.85362 -3.30418 -0.00747 0.00708 -0.00278 -8.69142 10.98799 35.36991 -0.76757 9.40564 -0.99310 -109.78139 -69.58524 -93.72443 -30.86807 50.11649 -82.84126 16.08714 10.01658 -11.52479 13.60161 9.09086 -4.83519 85.76014 2.35065 70.50472 11.47868 33.68104 101.87178 20.41865 12.30454 7.64905 31.41409 -13.86397 -25.82024 -22.60178 15.97610 65.81844 -14.69178 -0.00216 -0.00353 9.57377 7.24182 -39.35690 -31.99703 1.58423 16.21627 48.48917 33.62201 -54.61615 -35.80917 0.24288 0.20068 21.51364 -65.02407 21.34102 
